<?xml version="1.0" encoding="utf-8"?>
<!-- Generator: Adobe Illustrator 22.0.1, SVG Export Plug-In . SVG Version: 6.00 Build 0)  -->
<svg version="1.1" id="Layer_2_1_" xmlns="http://www.w3.org/2000/svg" xmlns:xlink="http://www.w3.org/1999/xlink" x="0px" y="0px"
	 viewBox="0 0 100 100" style="enable-background:new 0 0 100 100;" xml:space="preserve">
<path d="M80.8,3.5H19.3c-2.3,0-4.3,1.9-4.3,4.3v57c0,0.5,0.2,1.1,0.6,1.4l30.2,29.7c0.4,0.4,0.9,0.6,1.4,0.6h33.5
	c2.3,0,4.3-1.9,4.3-4.3V7.8C85,5.4,83.1,3.5,80.8,3.5z M44.7,87.1L24.5,67.2h20.2V87.1z M79.5,91H50.2V65.5c0-2.1-1.6-3.8-3.8-3.8
	H20.5V9h59V91z"/>
</svg>
