<?xml version="1.0" encoding="utf-8"?>
<!-- Generator: Adobe Illustrator 21.0.2, SVG Export Plug-In . SVG Version: 6.00 Build 0)  -->
<svg version="1.1" id="Layer_2_1_" xmlns="http://www.w3.org/2000/svg" xmlns:xlink="http://www.w3.org/1999/xlink" x="0px" y="0px"
	 viewBox="0 0 100 100" style="enable-background:new 0 0 100 100;" xml:space="preserve">
<path d="M92.6,15.4H55.3l-2.9-5.3l-0.1-0.2c-1.1-1.7-3.1-2.7-5-2.7H7.4c-3.2,0-5.8,2.6-5.8,5.8v74.1c0,3.2,2.6,5.8,5.8,5.8h85.1
	c3.2,0,5.8-2.6,5.8-5.8V43.9v-3V21.1C98.3,18,95.7,15.4,92.6,15.4z M92.6,20.9c0.2,0,0.3,0.2,0.3,0.3v14.1c-0.1,0-0.2,0-0.3,0H66.3
	c-0.1,0-0.2,0-0.4-0.2l-7.7-14.1H92.6z M92.8,87.1c0,0.1-0.1,0.3-0.3,0.3H7.4c-0.1,0-0.3-0.1-0.3-0.3V12.9c0-0.1,0.1-0.3,0.3-0.3
	l39.8,0c0.1,0,0.3,0.1,0.4,0.2l13.6,24.8l0.1,0.2c1.2,1.8,2.9,2.7,5,2.7h26.2c0.1,0,0.3,0.1,0.3,0.3v3V87.1z"/>
</svg>
