<?xml version="1.0" encoding="utf-8"?>
<!-- Generator: Adobe Illustrator 22.0.1, SVG Export Plug-In . SVG Version: 6.00 Build 0)  -->
<svg version="1.1" id="Layer_1" xmlns="http://www.w3.org/2000/svg" xmlns:xlink="http://www.w3.org/1999/xlink" x="0px" y="0px"
	 viewBox="0 0 100 100" style="enable-background:new 0 0 100 100;" xml:space="preserve">
<g>
	<path d="M81.8,97.5H62.6c-2.7,0-4.9-2.2-4.9-4.9V74.2c0-1.8-1.5-3.3-3.3-3.3h-8.9c-1.8,0-3.3,1.5-3.3,3.3v18.3
		c0,2.7-2.2,4.9-4.9,4.9H18.2c-2.1,0-3.8-1.7-3.8-3.8V38c0-1,0.4-2,1.1-2.7L47.3,3.6c1.5-1.5,3.9-1.5,5.4,0l31.8,31.8
		c0.7,0.7,1.1,1.7,1.1,2.7v55.6C85.7,95.8,83.9,97.5,81.8,97.5z M63.2,92h16.9V38.8L50,8.7l-30.1,30v53.2h16.9V74.2
		c0-4.8,3.9-8.8,8.8-8.8h8.9c4.8,0,8.8,3.9,8.8,8.8V92z"/>
</g>
</svg>
