<?xml version="1.0" encoding="utf-8"?>
<!-- Generator: Adobe Illustrator 22.0.1, SVG Export Plug-In . SVG Version: 6.00 Build 0)  -->
<svg version="1.1" id="Layer_2_1_" xmlns="http://www.w3.org/2000/svg" xmlns:xlink="http://www.w3.org/1999/xlink" x="0px" y="0px"
	 viewBox="0 0 100 100" style="enable-background:new 0 0 100 100;" xml:space="preserve">
<path d="M95.4,84.4l-6.4-29.7c-0.2-0.7-0.5-1.4-0.9-1.9c0.4-0.7,0.6-1.5,0.6-2.3V14.7c0-2.6-2.1-4.8-4.8-4.8H15.9
	c-2.6,0-4.8,2.1-4.8,4.8v35.7c0,0.8,0.2,1.6,0.6,2.3c-0.4,0.6-0.8,1.2-0.9,1.9L4.7,84.4c-0.3,1.4,0.1,2.9,1,4
	c0.9,1.1,2.3,1.8,3.7,1.8h81.5c1.4,0,2.8-0.6,3.7-1.8S95.7,85.8,95.4,84.4z M50,11.1c1,0,1.7,0.8,1.7,1.7S51,14.5,50,14.5
	c-1,0-1.7-0.8-1.7-1.7S49.1,11.1,50,11.1z M16.7,15.5h66.6v34.2H16.7V15.5z M10.2,84.6l5.9-28.2h67.7l6,28.2H10.2z"/>
</svg>
