<?xml version="1.0" encoding="utf-8"?>
<!-- Generator: Adobe Illustrator 22.0.1, SVG Export Plug-In . SVG Version: 6.00 Build 0)  -->
<svg version="1.1" id="Layer_2_1_" xmlns="http://www.w3.org/2000/svg" xmlns:xlink="http://www.w3.org/1999/xlink" x="0px" y="0px"
	 viewBox="0 0 100 100" style="enable-background:new 0 0 100 100;" xml:space="preserve">
<g>
	<path d="M27.8,43.5c0-1.5-1.2-2.8-2.8-2.8H13.5c0.1-0.2,0.2-0.4,0.2-0.6c3.9-15.8,18-26.9,34.3-26.9c16.2,0,30.3,11,34.3,26.8
		c0.4,1.5,1.9,2.4,3.3,2c1.5-0.4,2.4-1.9,2-3.3C83,20.5,66.7,7.8,48,7.8c-17.9,0-33.5,11.6-38.9,28.5V24.8c0-1.5-1.2-2.8-2.8-2.8
		s-2.8,1.2-2.8,2.8v17.8c0,2.1,1.7,3.8,3.8,3.8h17.8C26.6,46.3,27.8,45.1,27.8,43.5z"/>
	<path d="M92.7,58.6l-17.9-0.1c0,0,0,0,0,0c-1.5,0-2.7,1.2-2.8,2.7c0,1.5,1.2,2.8,2.7,2.8l11.8,0c-5.2,13.6-18.2,22.6-32.9,22.6
		C38.5,86.7,25,77,20.2,62.5c-0.5-1.4-2-2.2-3.5-1.8c-1.4,0.5-2.2,2-1.8,3.5c5.5,16.8,21.1,28,38.7,28c16.2,0,30.7-9.5,37.2-24.1v12
		c0,1.5,1.2,2.8,2.8,2.8s2.8-1.2,2.8-2.8V62.4C96.4,60.3,94.8,58.6,92.7,58.6z"/>
</g>
</svg>
