<svg width="16" height="16" version="1.1" viewBox="0 0 16 16" xmlns="http://www.w3.org/2000/svg"><path d="m7.9062 1a7 7 0 0 0-6.9062 7 7 7 0 0 0 7 7 7 7 0 0 0 7-7 7 7 0 0 0-7-7 7 7 0 0 0-0.09375 0zm0.09375 1.5a5.5 5.5 0 0 1 5.5 5.5 5.5 5.5 0 0 1-5.5 5.5 5.5 5.5 0 0 1-5.5-5.5 5.5 5.5 0 0 1 5.5-5.5zm0 1.5c-0.375 0-0.75 0.25-0.75 0.75v3.5c0 1 1.5 1 1.5 0v-3.5c0-0.5-0.375-0.75-0.75-0.75zm0 6c-0.5 0-1 0.33333-1 1 0 1.3333 2 1.3333 2 0 0-0.66667-0.5-1-1-1z" stroke="#fff" stroke-linecap="round" stroke-linejoin="round" stroke-width="2" style="paint-order:stroke fill markers"/></svg>
