<svg width="16" height="16" aria-hidden="true" version="1.1" viewBox="0 0 16 16" xmlns="http://www.w3.org/2000/svg"><path d="m9.7637 1.0118c-0.071486-0.00381-0.14117 0.023216-0.19141 0.074219l-2.3945 2.3945c-0.098915 0.097846-0.098915 0.25762 0 0.35547l2.3945 2.3945c0.15708 0.1588 0.42771 0.047585 0.42773-0.17578v-1.6465h1c0.55228 0 1 0.44772 1 1v5.2206c-2.3879 0.84384-1.7783 4.3725 0.75 4.3725s3.1379-3.5287 0.75-4.3725v-5.2206c0-1.3807-1.1194-2.5187-2.5-2.5h-1v-1.6465c1.99e-4 -0.1329-0.10362-0.24273-0.23633-0.25zm-6.0156 0.39648c-1.2419 0.001078-2.248 1.0081-2.248 2.25 9.6e-5 0.95343 0.6011 1.8033 1.5 2.1211v4.8495c-2.3879 0.84384-1.7783 4.3725 0.75 4.3725s3.1379-3.5287 0.75-4.3725v-4.8495c2.3846-0.84388 1.7775-4.3726-0.75195-4.3711zm0.00195 1.5c1 0 1 1.5 0 1.5s-1-1.5 0-1.5zm3.1e-6 9.0917c1 0 1 1.5 0 1.5s-1-1.5 0-1.5zm8.9863 0c0.41954-0.0076 0.76374 0.33039 0.76367 0.75 0 1-1.5 1-1.5 0-6.8e-5 -0.40893 0.32746-0.74254 0.73633-0.75z" stroke="#fff" stroke-linecap="round" stroke-linejoin="round" stroke-width="2" style="paint-order:stroke markers fill"/></svg>
