<?xml version="1.0" encoding="UTF-8" standalone="no"?>
<svg
   xmlns:dc="http://purl.org/dc/elements/1.1/"
   xmlns:cc="http://creativecommons.org/ns#"
   xmlns:rdf="http://www.w3.org/1999/02/22-rdf-syntax-ns#"
   xmlns:svg="http://www.w3.org/2000/svg"
   xmlns="http://www.w3.org/2000/svg"
   xmlns:sodipodi="http://sodipodi.sourceforge.net/DTD/sodipodi-0.dtd"
   xmlns:inkscape="http://www.inkscape.org/namespaces/inkscape"
   width="16"
   height="16"
   version="1.1"
   viewBox="0 0 16 16"
   id="svg4"
   sodipodi:docname="repo-dark.svg"
   inkscape:version="0.92.5 (2060ec1f9f, 2020-04-08)">
  <metadata
     id="metadata10">
    <rdf:RDF>
      <cc:Work
         rdf:about="">
        <dc:format>image/svg+xml</dc:format>
        <dc:type
           rdf:resource="http://purl.org/dc/dcmitype/StillImage" />
        <dc:title></dc:title>
      </cc:Work>
    </rdf:RDF>
  </metadata>
  <defs
     id="defs8" />
  <sodipodi:namedview
     pagecolor="#ffffff"
     bordercolor="#666666"
     borderopacity="1"
     objecttolerance="10"
     gridtolerance="10"
     guidetolerance="10"
     inkscape:pageopacity="0"
     inkscape:pageshadow="2"
     inkscape:window-width="1920"
     inkscape:window-height="1051"
     id="namedview6"
     showgrid="false"
     inkscape:zoom="14.75"
     inkscape:cx="-6.0205178"
     inkscape:cy="4.278125"
     inkscape:window-x="0"
     inkscape:window-y="-37"
     inkscape:window-maximized="1"
     inkscape:current-layer="svg4" />
  <path
     style="stroke-width:0.02370736"
     inkscape:connector-curvature="0"
     d="M 11.441187,4.4806325 C 10.976332,3.6841586 10.345785,3.0535897 9.5493876,2.5887835 8.7528649,2.1239554 7.8833012,1.8915988 6.9401514,1.8915988 c -0.9431006,0 -1.812948,0.2324276 -2.6092305,0.6971847 C 3.534447,3.0535678 2.9039272,3.6841586 2.4390719,4.4806325 1.974293,5.2770789 1.7418872,6.1468118 1.7418872,7.0898626 c 0,1.13274 0.3304813,2.151325 0.991608,3.0561204 0.6610556,0.904769 1.5150419,1.530833 2.5618167,1.878263 0.1218589,0.02263 0.2120613,0.0068 0.2707163,-0.04735 0.058677,-0.05414 0.087977,-0.121854 0.087977,-0.202981 0,-0.01356 -0.00109,-0.135325 -0.00328,-0.365499 -0.00219,-0.230176 -0.00328,-0.430974 -0.00328,-0.602309 l -0.1556862,0.02696 c -0.099267,0.01821 -0.2244882,0.02587 -0.3756692,0.02373 -0.1511101,-0.0022 -0.3079827,-0.01793 -0.4704048,-0.0474 C 4.4831948,10.780196 4.3320575,10.712523 4.1921613,10.606482 4.0523423,10.500433 3.9530804,10.361632 3.8944034,10.19027 L 3.8267218,10.034512 C 3.7816151,9.9308164 3.7105763,9.8156219 3.6135451,9.6893611 3.5165084,9.5629757 3.4183838,9.4772953 3.3191218,9.4321823 L 3.2717185,9.398288 C 3.2401715,9.37576 3.2108385,9.348533 3.1837415,9.316992 3.1566775,9.285443 3.1363935,9.253869 3.1228615,9.222235 3.1093025,9.19058 3.1206715,9.164632 3.1567055,9.144261 3.1928465,9.123874 3.2581927,9.11403 3.3529987,9.11403 L 3.488324,9.134263 c 0.090252,0.018099 0.201892,0.07212 0.3350522,0.1624169 0.1330946,0.09023 0.2425042,0.2075341 0.3282561,0.351864 0.1038382,0.1850635 0.2289395,0.3260748 0.3756645,0.4231051 0.1466048,0.09704 0.2944233,0.145469 0.4433026,0.145469 0.1488846,0 0.2774741,-0.01126 0.3858176,-0.03373 0.1082231,-0.02258 0.2097595,-0.0565 0.3045655,-0.101585 C 5.7016055,9.7793404 5.8121629,9.5469836 5.9926004,9.3845666 5.7354215,9.357552 5.5042076,9.3168267 5.2988275,9.262708 5.0935677,9.2085218 4.8814626,9.1205536 4.6626434,8.9986071 4.443704,8.8768186 4.2620801,8.7255884 4.1177279,8.545178 3.9733483,8.3646703 3.8548627,8.1276929 3.7624242,7.8344563 3.6699419,7.541099 3.6236926,7.2027009 3.6236926,6.8191626 c 0,-0.546096 0.1782778,-1.0108093 0.5347624,-1.3943963 C 3.991462,5.0141975 4.0072303,4.5539404 4.2058033,4.044044 4.3366672,4.0033659 4.5307351,4.0338744 4.7879086,4.135389 5.0451367,4.2369254 5.2334693,4.3239128 5.3530921,4.3960289 5.4727203,4.4681229 5.5685706,4.5292164 5.640785,4.5787626 6.0605227,4.4614854 6.4936777,4.4028304 6.9403756,4.4028304 c 0.4466924,0 0.8799459,0.058655 1.2997055,0.1759322 L 8.4972819,4.4163952 C 8.6731704,4.3080518 8.8808689,4.2087625 9.1198841,4.118511 9.3590483,4.0283032 9.541924,4.0034589 9.6683322,4.0441151 c 0.2029852,0.5099237 0.2210714,0.9701535 0.054021,1.3807168 0.3564628,0.383587 0.5348118,0.8484148 0.5348118,1.3943967 0,0.3835374 -0.04643,0.7230023 -0.138759,1.0186121 C 10.025951,8.133494 9.9064428,8.3702358 9.7598324,8.5485626 9.6130639,8.7268675 9.4302802,8.8769114 9.2114616,8.9986722 8.9925933,9.1205251 8.7804119,9.2084811 8.5751519,9.2626746 8.3697992,9.3168584 8.1385851,9.3576009 7.8814061,9.3846757 c 0.23456,0.2029795 0.3518645,0.5233851 0.3518645,0.9610723 v 1.428059 c 0,0.08113 0.028212,0.148858 0.08468,0.202981 0.056399,0.05402 0.1454675,0.06994 0.2673271,0.0473 C 9.6322656,11.676696 10.486252,11.050611 11.14733,10.145843 11.808291,9.2411436 12.138893,8.2225587 12.138893,7.0897259 12.138652,6.1468607 11.906132,5.277199 11.441561,4.4807307 Z"
     id="path2-6" />
  <path
     inkscape:connector-curvature="0"
     style="fill-rule:evenodd;stroke-width:0.19774017;fill:#000000;fill-opacity:1"
     d="m 10.474577,11.263419 a 0.49435042,0.49435042 0 0 1 0.49435,-0.494351 h 1.730226 a 0.14830513,0.14830513 0 0 1 0.148305,0.148305 v 2.471752 a 0.14830513,0.14830513 0 0 1 -0.148305,0.148305 h -0.49435 a 0.14830518,0.14830518 0 1 1 0,-0.29661 h 0.346046 v -0.39548 h -1.581922 a 0.19774017,0.19774017 0 0 0 -0.141186,0.336158 0.14836075,0.14836075 0 0 1 -0.211978,0.207627 0.49336172,0.49336172 0 0 1 -0.141186,-0.346045 z m 2.076272,-0.197741 v 1.483051 h -1.581922 c -0.0704,0 -0.137232,0.01464 -0.197741,0.04113 v -1.32644 a 0.19774017,0.19774017 0 0 1 0.197741,-0.19774 z m -1.483052,2.125707 v 0.642656 a 0.04943504,0.04943504 0 0 0 0.0791,0.03955 l 0.286723,-0.214943 a 0.04943504,0.04943504 0 0 1 0.05932,0 l 0.286723,0.214943 a 0.04943504,0.04943504 0 0 0 0.0791,-0.03955 v -0.642656 a 0.04943504,0.04943504 0 0 0 -0.04943,-0.04944 h -0.69209 a 0.04943504,0.04943504 0 0 0 -0.04943,0.04944 z"
     id="path2-3" />
</svg>
